Hanif_Shallow_5_0_grf.mot
version=1
nRows=21
nColumns=19
inDegrees=yes
endheader
time	right_ground_force_vx	right_ground_force_vy	right_ground_force_vz	right_ground_force_px	right_ground_force_py	right_ground_force_pz	right_ground_torque_x	right_ground_torque_y	right_ground_torque_z	left_ground_force_vx	left_ground_force_vy	left_ground_force_vz	left_ground_force_px	left_ground_force_py	left_ground_force_pz	left_ground_torque_x	left_ground_torque_y	left_ground_torque_z
1.810000	-3.236750	256.643000	53.937100	0.235852	0.000000	-1.417500	-22.710400	-2.378740	9.167960	-6.198490	222.597000	-49.586600	0.232528	0.000000	-0.974306	15.890900	1.394730	7.387790
1.815000	-3.946060	253.855000	53.176600	0.235748	0.000000	-1.417000	-22.589700	-2.487240	9.025590	-6.297860	221.411000	-49.311400	0.232653	0.000000	-0.975050	15.971100	1.418770	7.373360
1.820000	-3.728940	252.854000	53.245100	0.235944	0.000000	-1.417930	-22.262900	-2.568810	9.019860	-6.281420	217.914000	-48.910200	0.232236	0.000000	-0.976351	15.998600	1.539930	7.136430
1.825000	-4.425880	250.661000	52.946300	0.235364	0.000000	-1.418270	-21.983800	-2.576740	8.797720	-6.502770	217.664000	-48.539100	0.232556	0.000000	-0.975143	15.716400	1.597830	7.186860
1.830000	-4.386390	250.197000	52.650300	0.235302	0.000000	-1.418910	-21.781600	-2.639650	8.748480	-6.759260	213.997000	-47.831500	0.232130	0.000000	-0.975023	15.425700	1.611150	6.967830
1.835000	-4.694240	246.545000	52.279500	0.235392	0.000000	-1.416900	-21.957900	-2.756730	8.622120	-6.888230	211.540000	-47.120300	0.232530	0.000000	-0.976166	15.490800	1.629010	6.972200
1.840000	-4.820610	244.804000	52.130600	0.235209	0.000000	-1.418190	-21.483800	-2.852730	8.492820	-7.591180	208.905000	-46.508200	0.232919	0.000000	-0.976501	15.368700	1.701250	6.963270
1.845000	-5.212940	243.786000	51.754200	0.235375	0.000000	-1.417750	-21.503200	-2.849120	8.505430	-8.126230	206.982000	-46.042800	0.232354	0.000000	-0.976712	15.274200	1.654360	6.793380
1.850000	-5.317070	242.019000	50.956000	0.234318	0.000000	-1.417540	-21.394000	-2.943100	8.153260	-7.819900	204.964000	-45.286300	0.231612	0.000000	-0.975660	14.906100	1.649810	6.556750
1.855000	-5.267780	242.478000	50.436900	0.234434	0.000000	-1.418360	-21.234100	-2.971900	8.188560	-8.113840	202.986000	-44.599000	0.231830	0.000000	-0.975847	14.804000	1.584860	6.554510
1.860000	-5.699270	238.460000	49.596800	0.234545	0.000000	-1.417290	-21.136300	-2.946140	8.086460	-8.577190	199.857000	-43.756800	0.230117	0.000000	-0.975934	14.595900	1.487760	6.118870
1.865000	-6.572770	237.772000	48.938900	0.234393	0.000000	-1.418200	-20.854700	-3.030400	8.019260	-8.497020	197.926000	-43.284700	0.229619	0.000000	-0.975868	14.440300	1.483080	5.953760
1.870000	-6.756250	237.976000	48.741600	0.234014	0.000000	-1.418790	-20.730900	-3.037940	7.932430	-8.472760	195.919000	-43.379600	0.229509	0.000000	-0.975931	14.306900	1.472000	5.875680
1.875000	-7.088190	234.911000	48.469500	0.234448	0.000000	-1.417530	-20.759200	-3.061690	7.934360	-8.276870	195.292000	-42.412100	0.228620	0.000000	-0.975768	14.231700	1.325580	5.695880
1.880000	-7.794910	233.561000	48.037100	0.234254	0.000000	-1.417840	-20.562900	-3.163820	7.829500	-8.117140	193.808000	-42.182800	0.227375	0.000000	-0.975312	14.033600	1.292750	5.403140
1.885000	-8.462490	232.371000	47.397800	0.233189	0.000000	-1.419030	-20.177900	-3.152340	7.540180	-7.534660	191.518000	-41.469500	0.227483	0.000000	-0.975118	13.831200	1.194840	5.369210
1.890000	-8.987560	229.501000	47.200800	0.234966	0.000000	-1.417960	-20.171600	-3.272720	7.853890	-7.160270	193.076000	-41.895300	0.226343	0.000000	-0.976331	14.178400	1.090520	5.203030
1.895000	-9.056920	228.594000	46.863400	0.233982	0.000000	-1.419110	-19.827500	-3.285110	7.582500	-6.333170	192.579000	-42.087400	0.226150	0.000000	-0.974721	13.827800	1.075700	5.140570
1.900000	-9.663430	229.232000	47.487400	0.233955	0.000000	-1.418130	-20.104900	-3.338410	7.601980	-6.451640	194.158000	-42.334300	0.226290	0.000000	-0.974814	13.961400	1.029390	5.223570
1.905000	-8.881780	233.129000	48.367900	0.234790	0.000000	-1.418690	-20.322000	-3.299800	7.935830	-6.527960	195.248000	-42.230500	0.225572	0.000000	-0.974184	13.918600	0.947267	5.122050
1.910000	-8.126060	234.611000	49.230300	0.234330	0.000000	-1.418470	-20.506500	-3.228510	7.880660	-6.526200	194.575000	-42.650100	0.225118	0.000000	-0.975301	14.091600	0.839453	5.041500
